<svg height="512pt" viewBox="0 0 512 512" width="512pt" xmlns="http://www.w3.org/2000/svg"><path d="m512 256c0 141.386719-114.613281 256-256 256s-256-114.613281-256-256 114.613281-256 256-256 256 114.613281 256 256zm0 0" fill="#fac15c"/><path d="m512 256c0-7.273438-.320312-14.46875-.914062-21.589844l-116.746094-116.746094-59.835938-9.164062-89.394531 27.5-30.171875-28.324219-11.890625-11.886719-93.296875 40.460938 23.25 112.082031-26 84.167969 10.664062 61.839844 116.746094 116.746094c7.121094.59375 14.316406.914062 21.589844.914062 141.386719 0 256-114.613281 256-256zm0 0" fill="#fb8454"/><path d="m168.257812 391.195312c-15.21875 0-27.058593-4.125-35.191406-12.257812-14.171875-14.171875-16.101562-40.890625-5.292968-73.304688 11.8125-35.4375 36.886718-73.527343 70.609374-107.25 18.21875-18.21875 37.921876-33.941406 57.617188-46.378906l7.261719-25.492187h-7.261719c-24.871094 14.179687-49.921875 33.371093-73.019531 56.46875-36.066407 36.066406-63.011719 77.179687-75.875 115.761719-13.707031 41.128906-9.960938 75.078124 10.558593 95.597656 12.195313 12.191406 29.6875 18.640625 50.59375 18.640625 26.242188 0 56.851563-9.878907 87.742188-27.492188l7.261719-25.492187h-7.261719c-31.253906 19.738281-62.484375 31.199218-87.742188 31.199218zm0 0" fill="#1d71b8"/><path d="m394.339844 117.664062c-12.195313-12.195312-29.691406-18.644531-50.597656-18.644531-26.242188 0-56.851563 9.878907-87.742188 27.492188v25.492187c31.253906-19.738281 62.484375-31.199218 87.742188-31.199218 15.21875 0 27.058593 4.125 35.195312 12.261718 14.167969 14.167969 16.097656 40.886719 5.292969 73.304688-11.816407 35.4375-36.890625 73.523437-70.613281 107.246094-18.21875 18.21875-37.921876 33.941406-57.617188 46.382812v25.492188c24.871094-14.179688 49.921875-33.375 73.019531-56.472657 36.066407-36.066406 63.011719-77.175781 75.875-115.761719 13.707031-41.128906 9.960938-75.078124-10.554687-95.59375zm0 0" fill="#134a79"/><path d="m198.382812 313.617188c-33.722656-33.722657-58.796874-71.808594-70.609374-107.25-10.808594-32.414063-8.878907-59.132813 5.292968-73.300782 8.136719-8.136718 19.976563-12.261718 35.191406-12.261718 25.257813 0 56.488282 11.460937 87.742188 31.199218h7.261719l-7.261719-25.492187c-30.890625-17.613281-61.5-27.492188-87.742188-27.492188-20.90625 0-38.398437 6.449219-50.59375 18.640625-20.519531 20.519532-24.265624 54.46875-10.558593 95.597656 12.863281 38.582032 39.808593 79.695313 75.875 115.761719 23.097656 23.097657 48.148437 42.289063 73.019531 56.46875h7.261719l-7.261719-25.492187c-19.695312-12.4375-39.398438-28.160156-57.617188-46.378906zm0 0" fill="#77aad4"/><path d="m404.894531 298.742188c-12.863281-38.582032-39.808593-79.695313-75.875-115.761719-23.097656-23.097657-48.148437-42.289063-73.019531-56.46875v25.492187c19.695312 12.4375 39.398438 28.160156 57.617188 46.378906 33.722656 33.722657 58.796874 71.808594 70.609374 107.25 10.808594 32.414063 8.878907 59.132813-5.289062 73.300782-8.136719 8.136718-19.976562 12.261718-35.191406 12.261718-25.261719 0-56.492188-11.460937-87.746094-31.199218v25.492187c30.890625 17.613281 61.5 27.492188 87.746094 27.492188 20.902344 0 38.398437-6.449219 50.59375-18.640625 20.515625-20.519532 24.261718-54.46875 10.554687-95.597656zm0 0" fill="#4a8ec6"/><path d="m209.054688 110.78125c0 12.03125-9.753907 21.78125-21.785157 21.78125-12.027343 0-21.78125-9.75-21.78125-21.78125 0-12.027344 9.753907-21.78125 21.78125-21.78125 12.03125 0 21.785157 9.753906 21.785157 21.78125zm0 0" fill="#fd5575"/><path d="m209.054688 401.21875c0 12.027344-9.753907 21.78125-21.785157 21.78125-12.027343 0-21.78125-9.753906-21.78125-21.78125 0-12.03125 9.753907-21.78125 21.78125-21.78125 12.03125 0 21.785157 9.75 21.785157 21.78125zm0 0" fill="#fd5575"/><path d="m314.085938 245.109375h-31.792969l22.480469-22.480469-15.402344-15.402344-33.371094 33.371094-10.890625 15.402344v58.085938h21.78125v-31.792969l22.480469 22.480469 15.402344-15.402344-22.480469-22.480469h31.792969zm0 0" fill="#f9b233"/><path d="m266.890625 197.914062h-21.78125v31.792969l-22.480469-22.480469-15.402344 15.402344 22.480469 22.480469h-31.792969v21.78125h31.792969l-22.480469 22.480469 15.402344 15.402344 33.371094-33.371094 10.890625-15.402344zm0 0" fill="#fac15c"/><path d="m223.324219 256c0 18.046875 14.628906 32.675781 32.675781 32.675781l14.523438-32.675781-14.523438-32.675781c-18.046875 0-32.675781 14.628906-32.675781 32.675781zm0 0" fill="#f9b233"/><path d="m256 223.324219v65.351562c18.046875 0 32.675781-14.628906 32.675781-32.675781s-14.628906-32.675781-32.675781-32.675781zm0 0" fill="#fb8454"/><path d="m372.214844 234.785156c-3.589844 7.058594-7.628906 14.148438-12.09375 21.214844v21.214844h12.09375c4.804687-7.035156 9.242187-14.121094 13.28125-21.214844v-21.214844zm0 0" fill="#134a79"/></svg>